<mxfile host="app.diagrams.net" modified="2023-10-13T07:27:49.130Z" agent="Mozilla/5.0 (Macintosh; Intel Mac OS X 10_15_7) AppleWebKit/605.1.15 (KHTML, like Gecko) Version/14.1.2 Safari/605.1.15" etag="oOKQfy2hhMDPJ4IFns0E" version="22.0.4" type="device">
  <diagram name="Page-1" id="4ewBqpeI2Givv8hL6KO4">
    <mxGraphModel dx="1781" dy="1718" grid="1" gridSize="10" guides="1" tooltips="1" connect="1" arrows="1" fold="1" page="1" pageScale="1" pageWidth="827" pageHeight="1169" math="0" shadow="0">
      <root>
        <mxCell id="0" />
        <mxCell id="1" parent="0" />
        <mxCell id="XuR0aohxpmjhSYWtku_5-157" value="" style="rounded=0;whiteSpace=wrap;html=1;fillColor=#fff2cc;strokeColor=#d6b656;opacity=50;movable=1;resizable=1;rotatable=1;deletable=1;editable=1;locked=0;connectable=1;" parent="1" vertex="1">
          <mxGeometry x="80" y="300" width="120" height="320" as="geometry" />
        </mxCell>
        <mxCell id="XuR0aohxpmjhSYWtku_5-158" value="" style="rounded=0;whiteSpace=wrap;html=1;fillColor=#d5e8d4;strokeColor=#82b366;opacity=50;movable=1;resizable=1;rotatable=1;deletable=1;editable=1;locked=0;connectable=1;" parent="1" vertex="1">
          <mxGeometry x="560" y="300" width="120" height="320" as="geometry" />
        </mxCell>
        <mxCell id="XuR0aohxpmjhSYWtku_5-159" value="" style="rounded=0;whiteSpace=wrap;html=1;fillColor=#dae8fc;strokeColor=#6c8ebf;opacity=50;movable=1;resizable=1;rotatable=1;deletable=1;editable=1;locked=0;connectable=1;" parent="1" vertex="1">
          <mxGeometry x="320" y="300" width="120" height="320" as="geometry" />
        </mxCell>
        <mxCell id="XuR0aohxpmjhSYWtku_5-160" value="Client" style="shape=umlActor;verticalLabelPosition=bottom;verticalAlign=top;html=1;outlineConnect=0;fillColor=none;" parent="1" vertex="1">
          <mxGeometry x="145" y="330" width="30" height="60" as="geometry" />
        </mxCell>
        <mxCell id="XuR0aohxpmjhSYWtku_5-161" value="ServiceClient" style="shape=umlActor;verticalLabelPosition=bottom;verticalAlign=top;html=1;outlineConnect=0;fillColor=none;" parent="1" vertex="1">
          <mxGeometry x="360" y="420" width="30" height="60" as="geometry" />
        </mxCell>
        <mxCell id="XuR0aohxpmjhSYWtku_5-162" value="Bandagiste" style="shape=umlActor;verticalLabelPosition=bottom;verticalAlign=top;html=1;outlineConnect=0;fillColor=none;" parent="1" vertex="1">
          <mxGeometry x="145" y="540" width="30" height="60" as="geometry" />
        </mxCell>
        <mxCell id="XuR0aohxpmjhSYWtku_5-163" value="ServiceFacturation" style="shape=umlActor;verticalLabelPosition=bottom;verticalAlign=top;html=1;outlineConnect=0;fillColor=none;" parent="1" vertex="1">
          <mxGeometry x="360" y="520" width="30" height="60" as="geometry" />
        </mxCell>
        <mxCell id="XuR0aohxpmjhSYWtku_5-164" value="Mutuelle" style="shape=umlActor;verticalLabelPosition=bottom;verticalAlign=top;html=1;outlineConnect=0;fillColor=none;" parent="1" vertex="1">
          <mxGeometry x="600" y="320" width="30" height="60" as="geometry" />
        </mxCell>
        <mxCell id="XuR0aohxpmjhSYWtku_5-165" value="Prescripteur" style="shape=umlActor;verticalLabelPosition=bottom;verticalAlign=top;html=1;outlineConnect=0;fillColor=none;" parent="1" vertex="1">
          <mxGeometry x="90" y="440" width="30" height="60" as="geometry" />
        </mxCell>
        <mxCell id="XuR0aohxpmjhSYWtku_5-166" value="MédecinConseil&lt;br&gt;" style="shape=umlActor;verticalLabelPosition=bottom;verticalAlign=top;html=1;outlineConnect=0;fillColor=none;" parent="1" vertex="1">
          <mxGeometry x="600" y="480" width="30" height="60" as="geometry" />
        </mxCell>
        <mxCell id="XuR0aohxpmjhSYWtku_5-167" value="Alphamédis" style="text;html=1;strokeColor=none;fillColor=none;align=center;verticalAlign=middle;whiteSpace=wrap;rounded=0;" parent="1" vertex="1">
          <mxGeometry x="320" y="270" width="60" height="30" as="geometry" />
        </mxCell>
        <mxCell id="XuR0aohxpmjhSYWtku_5-168" value="Mutuelle" style="text;html=1;strokeColor=none;fillColor=none;align=center;verticalAlign=middle;whiteSpace=wrap;rounded=0;" parent="1" vertex="1">
          <mxGeometry x="560" y="270" width="60" height="30" as="geometry" />
        </mxCell>
        <mxCell id="XuR0aohxpmjhSYWtku_5-169" value="Patient" style="text;html=1;strokeColor=none;fillColor=none;align=center;verticalAlign=middle;whiteSpace=wrap;rounded=0;" parent="1" vertex="1">
          <mxGeometry x="80" y="270" width="60" height="30" as="geometry" />
        </mxCell>
        <mxCell id="XuR0aohxpmjhSYWtku_5-174" value="" style="endArrow=classic;html=1;rounded=0;dashed=1;" parent="1" edge="1">
          <mxGeometry width="50" height="50" relative="1" as="geometry">
            <mxPoint x="180" y="370" as="sourcePoint" />
            <mxPoint x="350" y="440" as="targetPoint" />
          </mxGeometry>
        </mxCell>
        <mxCell id="XuR0aohxpmjhSYWtku_5-175" value="" style="endArrow=classic;html=1;rounded=0;dashed=1;" parent="1" edge="1">
          <mxGeometry width="50" height="50" relative="1" as="geometry">
            <mxPoint x="120" y="480" as="sourcePoint" />
            <mxPoint x="350" y="450" as="targetPoint" />
          </mxGeometry>
        </mxCell>
        <mxCell id="XuR0aohxpmjhSYWtku_5-176" value="" style="endArrow=classic;html=1;rounded=0;dashed=1;" parent="1" edge="1">
          <mxGeometry width="50" height="50" relative="1" as="geometry">
            <mxPoint x="180" y="580" as="sourcePoint" />
            <mxPoint x="350" y="460" as="targetPoint" />
          </mxGeometry>
        </mxCell>
        <mxCell id="XuR0aohxpmjhSYWtku_5-177" value="Dépôt" style="shape=umlActor;verticalLabelPosition=bottom;verticalAlign=top;html=1;outlineConnect=0;fillColor=none;" parent="1" vertex="1">
          <mxGeometry x="360" y="320" width="30" height="60" as="geometry" />
        </mxCell>
        <mxCell id="XuR0aohxpmjhSYWtku_5-178" value="" style="endArrow=classic;html=1;curved=1;" parent="1" edge="1">
          <mxGeometry width="50" height="50" relative="1" as="geometry">
            <mxPoint x="390" y="460" as="sourcePoint" />
            <mxPoint x="400" y="350" as="targetPoint" />
            <Array as="points">
              <mxPoint x="470" y="380" />
            </Array>
          </mxGeometry>
        </mxCell>
        <mxCell id="XuR0aohxpmjhSYWtku_5-179" value="fCMD || fNvPatient" style="edgeLabel;html=1;align=center;verticalAlign=middle;resizable=0;points=[];labelBackgroundColor=default;" parent="XuR0aohxpmjhSYWtku_5-178" vertex="1" connectable="0">
          <mxGeometry x="0.532" y="18" relative="1" as="geometry">
            <mxPoint x="26" y="-4" as="offset" />
          </mxGeometry>
        </mxCell>
        <mxCell id="XuR0aohxpmjhSYWtku_5-186" value="" style="endArrow=classic;html=1;startArrow=classic;startFill=1;curved=1;" parent="1" edge="1">
          <mxGeometry width="50" height="50" relative="1" as="geometry">
            <mxPoint x="110" y="430" as="sourcePoint" />
            <mxPoint x="140" y="360" as="targetPoint" />
            <Array as="points">
              <mxPoint x="100" y="380" />
            </Array>
          </mxGeometry>
        </mxCell>
        <mxCell id="XuR0aohxpmjhSYWtku_5-187" value="A93" style="edgeLabel;html=1;align=center;verticalAlign=middle;resizable=0;points=[];" parent="XuR0aohxpmjhSYWtku_5-186" vertex="1" connectable="0">
          <mxGeometry x="0.4222" y="2" relative="1" as="geometry">
            <mxPoint as="offset" />
          </mxGeometry>
        </mxCell>
        <mxCell id="-spEtkySA-hdAaVdw4VL-42" value="" style="rounded=0;whiteSpace=wrap;html=1;fillColor=#fff2cc;strokeColor=#d6b656;opacity=50;movable=1;resizable=1;rotatable=1;deletable=1;editable=1;locked=0;connectable=1;" vertex="1" parent="1">
          <mxGeometry x="80" y="680" width="120" height="320" as="geometry" />
        </mxCell>
        <mxCell id="-spEtkySA-hdAaVdw4VL-43" value="" style="rounded=0;whiteSpace=wrap;html=1;fillColor=#d5e8d4;strokeColor=#82b366;opacity=50;movable=1;resizable=1;rotatable=1;deletable=1;editable=1;locked=0;connectable=1;" vertex="1" parent="1">
          <mxGeometry x="560" y="680" width="120" height="320" as="geometry" />
        </mxCell>
        <mxCell id="-spEtkySA-hdAaVdw4VL-44" value="" style="rounded=0;whiteSpace=wrap;html=1;fillColor=#dae8fc;strokeColor=#6c8ebf;opacity=50;movable=1;resizable=1;rotatable=1;deletable=1;editable=1;locked=0;connectable=1;" vertex="1" parent="1">
          <mxGeometry x="320" y="680" width="120" height="320" as="geometry" />
        </mxCell>
        <mxCell id="-spEtkySA-hdAaVdw4VL-45" value="Client" style="shape=umlActor;verticalLabelPosition=bottom;verticalAlign=top;html=1;outlineConnect=0;fillColor=none;" vertex="1" parent="1">
          <mxGeometry x="145" y="710" width="30" height="60" as="geometry" />
        </mxCell>
        <mxCell id="-spEtkySA-hdAaVdw4VL-46" value="ServiceClient" style="shape=umlActor;verticalLabelPosition=bottom;verticalAlign=top;html=1;outlineConnect=0;fillColor=none;" vertex="1" parent="1">
          <mxGeometry x="360" y="800" width="30" height="60" as="geometry" />
        </mxCell>
        <mxCell id="-spEtkySA-hdAaVdw4VL-47" value="Bandagiste" style="shape=umlActor;verticalLabelPosition=bottom;verticalAlign=top;html=1;outlineConnect=0;fillColor=none;" vertex="1" parent="1">
          <mxGeometry x="145" y="920" width="30" height="60" as="geometry" />
        </mxCell>
        <mxCell id="-spEtkySA-hdAaVdw4VL-48" value="ServiceFacturation" style="shape=umlActor;verticalLabelPosition=bottom;verticalAlign=top;html=1;outlineConnect=0;fillColor=none;" vertex="1" parent="1">
          <mxGeometry x="360" y="900" width="30" height="60" as="geometry" />
        </mxCell>
        <mxCell id="-spEtkySA-hdAaVdw4VL-49" value="Mutuelle" style="shape=umlActor;verticalLabelPosition=bottom;verticalAlign=top;html=1;outlineConnect=0;fillColor=none;" vertex="1" parent="1">
          <mxGeometry x="600" y="700" width="30" height="60" as="geometry" />
        </mxCell>
        <mxCell id="-spEtkySA-hdAaVdw4VL-50" value="Prescripteur" style="shape=umlActor;verticalLabelPosition=bottom;verticalAlign=top;html=1;outlineConnect=0;fillColor=none;" vertex="1" parent="1">
          <mxGeometry x="90" y="820" width="30" height="60" as="geometry" />
        </mxCell>
        <mxCell id="-spEtkySA-hdAaVdw4VL-51" value="MédecinConseil&lt;br&gt;" style="shape=umlActor;verticalLabelPosition=bottom;verticalAlign=top;html=1;outlineConnect=0;fillColor=none;" vertex="1" parent="1">
          <mxGeometry x="600" y="860" width="30" height="60" as="geometry" />
        </mxCell>
        <mxCell id="-spEtkySA-hdAaVdw4VL-52" value="Alphamédis" style="text;html=1;strokeColor=none;fillColor=none;align=center;verticalAlign=middle;whiteSpace=wrap;rounded=0;" vertex="1" parent="1">
          <mxGeometry x="320" y="650" width="60" height="30" as="geometry" />
        </mxCell>
        <mxCell id="-spEtkySA-hdAaVdw4VL-53" value="Mutuelle" style="text;html=1;strokeColor=none;fillColor=none;align=center;verticalAlign=middle;whiteSpace=wrap;rounded=0;" vertex="1" parent="1">
          <mxGeometry x="560" y="650" width="60" height="30" as="geometry" />
        </mxCell>
        <mxCell id="-spEtkySA-hdAaVdw4VL-54" value="Patient" style="text;html=1;strokeColor=none;fillColor=none;align=center;verticalAlign=middle;whiteSpace=wrap;rounded=0;" vertex="1" parent="1">
          <mxGeometry x="80" y="650" width="60" height="30" as="geometry" />
        </mxCell>
        <mxCell id="-spEtkySA-hdAaVdw4VL-62" value="Dépôt" style="shape=umlActor;verticalLabelPosition=bottom;verticalAlign=top;html=1;outlineConnect=0;fillColor=none;" vertex="1" parent="1">
          <mxGeometry x="360" y="700" width="30" height="60" as="geometry" />
        </mxCell>
        <mxCell id="-spEtkySA-hdAaVdw4VL-67" value="" style="endArrow=classic;html=1;curved=1;" edge="1" parent="1">
          <mxGeometry width="50" height="50" relative="1" as="geometry">
            <mxPoint x="180" y="920" as="sourcePoint" />
            <mxPoint x="180" y="760" as="targetPoint" />
            <Array as="points">
              <mxPoint x="250" y="840" />
            </Array>
          </mxGeometry>
        </mxCell>
        <mxCell id="-spEtkySA-hdAaVdw4VL-68" value="CMD + Docs" style="edgeLabel;html=1;align=center;verticalAlign=middle;resizable=0;points=[];" vertex="1" connectable="0" parent="-spEtkySA-hdAaVdw4VL-67">
          <mxGeometry x="0.3134" y="18" relative="1" as="geometry">
            <mxPoint x="-36" y="-19" as="offset" />
          </mxGeometry>
        </mxCell>
        <mxCell id="-spEtkySA-hdAaVdw4VL-69" value="" style="endArrow=none;html=1;curved=1;startArrow=classic;startFill=1;endFill=0;" edge="1" parent="1">
          <mxGeometry width="50" height="50" relative="1" as="geometry">
            <mxPoint x="180" y="930" as="sourcePoint" />
            <mxPoint x="190" y="760" as="targetPoint" />
            <Array as="points">
              <mxPoint x="260" y="840" />
            </Array>
          </mxGeometry>
        </mxCell>
        <mxCell id="-spEtkySA-hdAaVdw4VL-70" value="A13 ||&lt;br&gt;A13TER" style="edgeLabel;html=1;align=center;verticalAlign=middle;resizable=0;points=[];" vertex="1" connectable="0" parent="-spEtkySA-hdAaVdw4VL-69">
          <mxGeometry x="0.3134" y="18" relative="1" as="geometry">
            <mxPoint x="14" y="-19" as="offset" />
          </mxGeometry>
        </mxCell>
        <mxCell id="-spEtkySA-hdAaVdw4VL-73" value="" style="endArrow=classic;startArrow=classic;html=1;rounded=0;" edge="1" parent="1">
          <mxGeometry width="50" height="50" relative="1" as="geometry">
            <mxPoint x="160" y="900" as="sourcePoint" />
            <mxPoint x="160" y="820" as="targetPoint" />
          </mxGeometry>
        </mxCell>
        <mxCell id="-spEtkySA-hdAaVdw4VL-74" value="A93" style="edgeLabel;html=1;align=center;verticalAlign=middle;resizable=0;points=[];" vertex="1" connectable="0" parent="-spEtkySA-hdAaVdw4VL-73">
          <mxGeometry x="-0.1457" y="-1" relative="1" as="geometry">
            <mxPoint as="offset" />
          </mxGeometry>
        </mxCell>
        <mxCell id="-spEtkySA-hdAaVdw4VL-83" value="" style="rounded=0;whiteSpace=wrap;html=1;fillColor=#fff2cc;strokeColor=#d6b656;opacity=50;movable=1;resizable=1;rotatable=1;deletable=1;editable=1;locked=0;connectable=1;" vertex="1" parent="1">
          <mxGeometry x="80" y="1090" width="120" height="320" as="geometry" />
        </mxCell>
        <mxCell id="-spEtkySA-hdAaVdw4VL-84" value="" style="rounded=0;whiteSpace=wrap;html=1;fillColor=#d5e8d4;strokeColor=#82b366;opacity=50;movable=1;resizable=1;rotatable=1;deletable=1;editable=1;locked=0;connectable=1;" vertex="1" parent="1">
          <mxGeometry x="560" y="1090" width="120" height="320" as="geometry" />
        </mxCell>
        <mxCell id="-spEtkySA-hdAaVdw4VL-85" value="" style="rounded=0;whiteSpace=wrap;html=1;fillColor=#dae8fc;strokeColor=#6c8ebf;opacity=50;movable=1;resizable=1;rotatable=1;deletable=1;editable=1;locked=0;connectable=1;" vertex="1" parent="1">
          <mxGeometry x="320" y="1090" width="120" height="320" as="geometry" />
        </mxCell>
        <mxCell id="-spEtkySA-hdAaVdw4VL-86" value="Client" style="shape=umlActor;verticalLabelPosition=bottom;verticalAlign=top;html=1;outlineConnect=0;fillColor=none;" vertex="1" parent="1">
          <mxGeometry x="145" y="1120" width="30" height="60" as="geometry" />
        </mxCell>
        <mxCell id="-spEtkySA-hdAaVdw4VL-87" value="ServiceClient" style="shape=umlActor;verticalLabelPosition=bottom;verticalAlign=top;html=1;outlineConnect=0;fillColor=none;" vertex="1" parent="1">
          <mxGeometry x="360" y="1210" width="30" height="60" as="geometry" />
        </mxCell>
        <mxCell id="-spEtkySA-hdAaVdw4VL-88" value="Bandagiste" style="shape=umlActor;verticalLabelPosition=bottom;verticalAlign=top;html=1;outlineConnect=0;fillColor=none;" vertex="1" parent="1">
          <mxGeometry x="145" y="1330" width="30" height="60" as="geometry" />
        </mxCell>
        <mxCell id="-spEtkySA-hdAaVdw4VL-89" value="ServiceFacturation" style="shape=umlActor;verticalLabelPosition=bottom;verticalAlign=top;html=1;outlineConnect=0;fillColor=none;" vertex="1" parent="1">
          <mxGeometry x="360" y="1310" width="30" height="60" as="geometry" />
        </mxCell>
        <mxCell id="-spEtkySA-hdAaVdw4VL-90" value="Mutuelle" style="shape=umlActor;verticalLabelPosition=bottom;verticalAlign=top;html=1;outlineConnect=0;fillColor=none;" vertex="1" parent="1">
          <mxGeometry x="600" y="1110" width="30" height="60" as="geometry" />
        </mxCell>
        <mxCell id="-spEtkySA-hdAaVdw4VL-91" value="Prescripteur" style="shape=umlActor;verticalLabelPosition=bottom;verticalAlign=top;html=1;outlineConnect=0;fillColor=none;" vertex="1" parent="1">
          <mxGeometry x="90" y="1230" width="30" height="60" as="geometry" />
        </mxCell>
        <mxCell id="-spEtkySA-hdAaVdw4VL-92" value="MédecinConseil&lt;br&gt;" style="shape=umlActor;verticalLabelPosition=bottom;verticalAlign=top;html=1;outlineConnect=0;fillColor=none;" vertex="1" parent="1">
          <mxGeometry x="600" y="1270" width="30" height="60" as="geometry" />
        </mxCell>
        <mxCell id="-spEtkySA-hdAaVdw4VL-93" value="Alphamédis" style="text;html=1;strokeColor=none;fillColor=none;align=center;verticalAlign=middle;whiteSpace=wrap;rounded=0;" vertex="1" parent="1">
          <mxGeometry x="320" y="1060" width="60" height="30" as="geometry" />
        </mxCell>
        <mxCell id="-spEtkySA-hdAaVdw4VL-94" value="Mutuelle" style="text;html=1;strokeColor=none;fillColor=none;align=center;verticalAlign=middle;whiteSpace=wrap;rounded=0;" vertex="1" parent="1">
          <mxGeometry x="560" y="1060" width="60" height="30" as="geometry" />
        </mxCell>
        <mxCell id="-spEtkySA-hdAaVdw4VL-95" value="Patient" style="text;html=1;strokeColor=none;fillColor=none;align=center;verticalAlign=middle;whiteSpace=wrap;rounded=0;" vertex="1" parent="1">
          <mxGeometry x="80" y="1060" width="60" height="30" as="geometry" />
        </mxCell>
        <mxCell id="-spEtkySA-hdAaVdw4VL-96" value="" style="endArrow=classic;html=1;rounded=0;" edge="1" parent="1">
          <mxGeometry width="50" height="50" relative="1" as="geometry">
            <mxPoint x="390" y="1350" as="sourcePoint" />
            <mxPoint x="600" y="1300" as="targetPoint" />
          </mxGeometry>
        </mxCell>
        <mxCell id="-spEtkySA-hdAaVdw4VL-97" value="Annexe93&lt;br&gt;Annexe13TER" style="edgeLabel;html=1;align=center;verticalAlign=middle;resizable=0;points=[];" vertex="1" connectable="0" parent="-spEtkySA-hdAaVdw4VL-96">
          <mxGeometry x="0.0043" y="2" relative="1" as="geometry">
            <mxPoint as="offset" />
          </mxGeometry>
        </mxCell>
        <mxCell id="-spEtkySA-hdAaVdw4VL-98" value="" style="endArrow=classic;html=1;rounded=0;" edge="1" parent="1">
          <mxGeometry width="50" height="50" relative="1" as="geometry">
            <mxPoint x="390" y="1340" as="sourcePoint" />
            <mxPoint x="590" y="1150" as="targetPoint" />
          </mxGeometry>
        </mxCell>
        <mxCell id="-spEtkySA-hdAaVdw4VL-99" value="Annexe13TER&lt;br&gt;Annexe13&lt;br&gt;Ordonnance" style="edgeLabel;html=1;align=center;verticalAlign=middle;resizable=0;points=[];" vertex="1" connectable="0" parent="-spEtkySA-hdAaVdw4VL-98">
          <mxGeometry x="0.0043" y="2" relative="1" as="geometry">
            <mxPoint as="offset" />
          </mxGeometry>
        </mxCell>
        <mxCell id="-spEtkySA-hdAaVdw4VL-103" value="Dépôt" style="shape=umlActor;verticalLabelPosition=bottom;verticalAlign=top;html=1;outlineConnect=0;fillColor=none;" vertex="1" parent="1">
          <mxGeometry x="360" y="1110" width="30" height="60" as="geometry" />
        </mxCell>
        <mxCell id="-spEtkySA-hdAaVdw4VL-119" value="" style="endArrow=classic;html=1;rounded=0;startArrow=classic;startFill=1;" edge="1" parent="1">
          <mxGeometry width="50" height="50" relative="1" as="geometry">
            <mxPoint x="180" y="1380" as="sourcePoint" />
            <mxPoint x="350" y="1350" as="targetPoint" />
          </mxGeometry>
        </mxCell>
        <mxCell id="-spEtkySA-hdAaVdw4VL-120" value="Annexes" style="edgeLabel;html=1;align=center;verticalAlign=middle;resizable=0;points=[];" vertex="1" connectable="0" parent="-spEtkySA-hdAaVdw4VL-119">
          <mxGeometry x="-0.194" y="3" relative="1" as="geometry">
            <mxPoint as="offset" />
          </mxGeometry>
        </mxCell>
        <mxCell id="-spEtkySA-hdAaVdw4VL-122" value="1" style="ellipse;whiteSpace=wrap;html=1;aspect=fixed;" vertex="1" parent="1">
          <mxGeometry x="270" y="790" width="20" height="20" as="geometry" />
        </mxCell>
        <mxCell id="-spEtkySA-hdAaVdw4VL-123" value="2" style="ellipse;whiteSpace=wrap;html=1;aspect=fixed;" vertex="1" parent="1">
          <mxGeometry x="175" y="890" width="20" height="20" as="geometry" />
        </mxCell>
        <mxCell id="-spEtkySA-hdAaVdw4VL-124" value="3" style="ellipse;whiteSpace=wrap;html=1;aspect=fixed;" vertex="1" parent="1">
          <mxGeometry x="210" y="870" width="20" height="20" as="geometry" />
        </mxCell>
        <mxCell id="-spEtkySA-hdAaVdw4VL-126" value="2" style="ellipse;whiteSpace=wrap;html=1;aspect=fixed;" vertex="1" parent="1">
          <mxGeometry x="280" y="1340" width="20" height="20" as="geometry" />
        </mxCell>
        <mxCell id="-spEtkySA-hdAaVdw4VL-127" value="1" style="ellipse;whiteSpace=wrap;html=1;aspect=fixed;" vertex="1" parent="1">
          <mxGeometry x="200" y="1350" width="20" height="20" as="geometry" />
        </mxCell>
        <mxCell id="-spEtkySA-hdAaVdw4VL-128" value="3" style="ellipse;whiteSpace=wrap;html=1;aspect=fixed;" vertex="1" parent="1">
          <mxGeometry x="414" y="1320" width="20" height="20" as="geometry" />
        </mxCell>
        <mxCell id="-spEtkySA-hdAaVdw4VL-167" value="" style="rounded=0;whiteSpace=wrap;html=1;fillColor=#fff2cc;strokeColor=#d6b656;opacity=50;movable=1;resizable=1;rotatable=1;deletable=1;editable=1;locked=0;connectable=1;" vertex="1" parent="1">
          <mxGeometry x="80" y="-80" width="120" height="320" as="geometry" />
        </mxCell>
        <mxCell id="-spEtkySA-hdAaVdw4VL-168" value="" style="rounded=0;whiteSpace=wrap;html=1;fillColor=#d5e8d4;strokeColor=#82b366;opacity=50;movable=1;resizable=1;rotatable=1;deletable=1;editable=1;locked=0;connectable=1;" vertex="1" parent="1">
          <mxGeometry x="560" y="-80" width="120" height="320" as="geometry" />
        </mxCell>
        <mxCell id="-spEtkySA-hdAaVdw4VL-169" value="" style="rounded=0;whiteSpace=wrap;html=1;fillColor=#dae8fc;strokeColor=#6c8ebf;opacity=50;movable=1;resizable=1;rotatable=1;deletable=1;editable=1;locked=0;connectable=1;" vertex="1" parent="1">
          <mxGeometry x="320" y="-80" width="120" height="320" as="geometry" />
        </mxCell>
        <mxCell id="-spEtkySA-hdAaVdw4VL-170" value="Client" style="shape=umlActor;verticalLabelPosition=bottom;verticalAlign=top;html=1;outlineConnect=0;fillColor=none;" vertex="1" parent="1">
          <mxGeometry x="145" y="-50" width="30" height="60" as="geometry" />
        </mxCell>
        <mxCell id="-spEtkySA-hdAaVdw4VL-171" value="ServiceClient" style="shape=umlActor;verticalLabelPosition=bottom;verticalAlign=top;html=1;outlineConnect=0;fillColor=none;" vertex="1" parent="1">
          <mxGeometry x="360" y="40" width="30" height="60" as="geometry" />
        </mxCell>
        <mxCell id="-spEtkySA-hdAaVdw4VL-172" value="Bandagiste" style="shape=umlActor;verticalLabelPosition=bottom;verticalAlign=top;html=1;outlineConnect=0;fillColor=none;" vertex="1" parent="1">
          <mxGeometry x="145" y="160" width="30" height="60" as="geometry" />
        </mxCell>
        <mxCell id="-spEtkySA-hdAaVdw4VL-173" value="ServiceFacturation" style="shape=umlActor;verticalLabelPosition=bottom;verticalAlign=top;html=1;outlineConnect=0;fillColor=none;" vertex="1" parent="1">
          <mxGeometry x="360" y="140" width="30" height="60" as="geometry" />
        </mxCell>
        <mxCell id="-spEtkySA-hdAaVdw4VL-174" value="Mutuelle" style="shape=umlActor;verticalLabelPosition=bottom;verticalAlign=top;html=1;outlineConnect=0;fillColor=none;" vertex="1" parent="1">
          <mxGeometry x="600" y="-60" width="30" height="60" as="geometry" />
        </mxCell>
        <mxCell id="-spEtkySA-hdAaVdw4VL-175" value="Prescripteur" style="shape=umlActor;verticalLabelPosition=bottom;verticalAlign=top;html=1;outlineConnect=0;fillColor=none;" vertex="1" parent="1">
          <mxGeometry x="90" y="60" width="30" height="60" as="geometry" />
        </mxCell>
        <mxCell id="-spEtkySA-hdAaVdw4VL-176" value="MédecinConseil&lt;br&gt;" style="shape=umlActor;verticalLabelPosition=bottom;verticalAlign=top;html=1;outlineConnect=0;fillColor=none;" vertex="1" parent="1">
          <mxGeometry x="600" y="100" width="30" height="60" as="geometry" />
        </mxCell>
        <mxCell id="-spEtkySA-hdAaVdw4VL-177" value="Alphamédis" style="text;html=1;strokeColor=none;fillColor=none;align=center;verticalAlign=middle;whiteSpace=wrap;rounded=0;" vertex="1" parent="1">
          <mxGeometry x="320" y="-110" width="60" height="30" as="geometry" />
        </mxCell>
        <mxCell id="-spEtkySA-hdAaVdw4VL-178" value="Mutuelle" style="text;html=1;strokeColor=none;fillColor=none;align=center;verticalAlign=middle;whiteSpace=wrap;rounded=0;" vertex="1" parent="1">
          <mxGeometry x="560" y="-110" width="60" height="30" as="geometry" />
        </mxCell>
        <mxCell id="-spEtkySA-hdAaVdw4VL-179" value="Patient" style="text;html=1;strokeColor=none;fillColor=none;align=center;verticalAlign=middle;whiteSpace=wrap;rounded=0;" vertex="1" parent="1">
          <mxGeometry x="80" y="-110" width="60" height="30" as="geometry" />
        </mxCell>
        <mxCell id="-spEtkySA-hdAaVdw4VL-180" value="" style="endArrow=classic;html=1;rounded=0;" edge="1" parent="1">
          <mxGeometry width="50" height="50" relative="1" as="geometry">
            <mxPoint x="390" y="180" as="sourcePoint" />
            <mxPoint x="600" y="130" as="targetPoint" />
          </mxGeometry>
        </mxCell>
        <mxCell id="-spEtkySA-hdAaVdw4VL-181" value="Annexe93&lt;br&gt;Annexe13TER" style="edgeLabel;html=1;align=center;verticalAlign=middle;resizable=0;points=[];" vertex="1" connectable="0" parent="-spEtkySA-hdAaVdw4VL-180">
          <mxGeometry x="0.0043" y="2" relative="1" as="geometry">
            <mxPoint as="offset" />
          </mxGeometry>
        </mxCell>
        <mxCell id="-spEtkySA-hdAaVdw4VL-182" value="" style="endArrow=classic;html=1;rounded=0;" edge="1" parent="1">
          <mxGeometry width="50" height="50" relative="1" as="geometry">
            <mxPoint x="390" y="170" as="sourcePoint" />
            <mxPoint x="590" y="-20" as="targetPoint" />
          </mxGeometry>
        </mxCell>
        <mxCell id="-spEtkySA-hdAaVdw4VL-183" value="Annexe13TER&lt;br&gt;Annexe13&lt;br&gt;Ordonnance" style="edgeLabel;html=1;align=center;verticalAlign=middle;resizable=0;points=[];" vertex="1" connectable="0" parent="-spEtkySA-hdAaVdw4VL-182">
          <mxGeometry x="0.0043" y="2" relative="1" as="geometry">
            <mxPoint as="offset" />
          </mxGeometry>
        </mxCell>
        <mxCell id="-spEtkySA-hdAaVdw4VL-184" value="" style="endArrow=classic;html=1;rounded=0;dashed=1;" edge="1" parent="1">
          <mxGeometry width="50" height="50" relative="1" as="geometry">
            <mxPoint x="180" y="-10" as="sourcePoint" />
            <mxPoint x="350" y="60" as="targetPoint" />
          </mxGeometry>
        </mxCell>
        <mxCell id="-spEtkySA-hdAaVdw4VL-185" value="" style="endArrow=classic;html=1;rounded=0;dashed=1;" edge="1" parent="1">
          <mxGeometry width="50" height="50" relative="1" as="geometry">
            <mxPoint x="120" y="100" as="sourcePoint" />
            <mxPoint x="350" y="70" as="targetPoint" />
          </mxGeometry>
        </mxCell>
        <mxCell id="-spEtkySA-hdAaVdw4VL-186" value="" style="endArrow=classic;html=1;rounded=0;dashed=1;" edge="1" parent="1">
          <mxGeometry width="50" height="50" relative="1" as="geometry">
            <mxPoint x="180" y="200" as="sourcePoint" />
            <mxPoint x="350" y="80" as="targetPoint" />
          </mxGeometry>
        </mxCell>
        <mxCell id="-spEtkySA-hdAaVdw4VL-187" value="Dépôt" style="shape=umlActor;verticalLabelPosition=bottom;verticalAlign=top;html=1;outlineConnect=0;fillColor=none;" vertex="1" parent="1">
          <mxGeometry x="360" y="-60" width="30" height="60" as="geometry" />
        </mxCell>
        <mxCell id="-spEtkySA-hdAaVdw4VL-188" value="" style="endArrow=classic;html=1;curved=1;" edge="1" parent="1">
          <mxGeometry width="50" height="50" relative="1" as="geometry">
            <mxPoint x="390" y="80" as="sourcePoint" />
            <mxPoint x="400" y="-30" as="targetPoint" />
            <Array as="points">
              <mxPoint x="470" />
            </Array>
          </mxGeometry>
        </mxCell>
        <mxCell id="-spEtkySA-hdAaVdw4VL-189" value="fCMD || fNvPatient" style="edgeLabel;html=1;align=center;verticalAlign=middle;resizable=0;points=[];labelBackgroundColor=default;" vertex="1" connectable="0" parent="-spEtkySA-hdAaVdw4VL-188">
          <mxGeometry x="0.532" y="18" relative="1" as="geometry">
            <mxPoint x="26" y="-4" as="offset" />
          </mxGeometry>
        </mxCell>
        <mxCell id="-spEtkySA-hdAaVdw4VL-190" value="" style="endArrow=classic;html=1;rounded=0;" edge="1" parent="1">
          <mxGeometry width="50" height="50" relative="1" as="geometry">
            <mxPoint x="350" y="-30" as="sourcePoint" />
            <mxPoint x="190" y="180" as="targetPoint" />
          </mxGeometry>
        </mxCell>
        <mxCell id="-spEtkySA-hdAaVdw4VL-191" value="CMD + Docs" style="edgeLabel;html=1;align=center;verticalAlign=middle;resizable=0;points=[];" vertex="1" connectable="0" parent="-spEtkySA-hdAaVdw4VL-190">
          <mxGeometry x="-0.1524" relative="1" as="geometry">
            <mxPoint x="42" y="-59" as="offset" />
          </mxGeometry>
        </mxCell>
        <mxCell id="-spEtkySA-hdAaVdw4VL-192" value="" style="endArrow=classic;html=1;curved=1;" edge="1" parent="1">
          <mxGeometry width="50" height="50" relative="1" as="geometry">
            <mxPoint x="180" y="160" as="sourcePoint" />
            <mxPoint x="180" as="targetPoint" />
            <Array as="points">
              <mxPoint x="250" y="80" />
            </Array>
          </mxGeometry>
        </mxCell>
        <mxCell id="-spEtkySA-hdAaVdw4VL-193" value="CMD + Docs" style="edgeLabel;html=1;align=center;verticalAlign=middle;resizable=0;points=[];" vertex="1" connectable="0" parent="-spEtkySA-hdAaVdw4VL-192">
          <mxGeometry x="0.3134" y="18" relative="1" as="geometry">
            <mxPoint x="-36" y="-19" as="offset" />
          </mxGeometry>
        </mxCell>
        <mxCell id="-spEtkySA-hdAaVdw4VL-194" value="" style="endArrow=none;html=1;curved=1;startArrow=classic;startFill=1;endFill=0;" edge="1" parent="1">
          <mxGeometry width="50" height="50" relative="1" as="geometry">
            <mxPoint x="180" y="170" as="sourcePoint" />
            <mxPoint x="190" as="targetPoint" />
            <Array as="points">
              <mxPoint x="260" y="80" />
            </Array>
          </mxGeometry>
        </mxCell>
        <mxCell id="-spEtkySA-hdAaVdw4VL-195" value="A13 ||&lt;br&gt;A13TER" style="edgeLabel;html=1;align=center;verticalAlign=middle;resizable=0;points=[];" vertex="1" connectable="0" parent="-spEtkySA-hdAaVdw4VL-194">
          <mxGeometry x="0.3134" y="18" relative="1" as="geometry">
            <mxPoint x="14" y="-19" as="offset" />
          </mxGeometry>
        </mxCell>
        <mxCell id="-spEtkySA-hdAaVdw4VL-196" value="" style="endArrow=classic;html=1;startArrow=classic;startFill=1;curved=1;" edge="1" parent="1">
          <mxGeometry width="50" height="50" relative="1" as="geometry">
            <mxPoint x="110" y="50" as="sourcePoint" />
            <mxPoint x="140" y="-20" as="targetPoint" />
            <Array as="points">
              <mxPoint x="100" />
            </Array>
          </mxGeometry>
        </mxCell>
        <mxCell id="-spEtkySA-hdAaVdw4VL-197" value="A93" style="edgeLabel;html=1;align=center;verticalAlign=middle;resizable=0;points=[];" vertex="1" connectable="0" parent="-spEtkySA-hdAaVdw4VL-196">
          <mxGeometry x="0.4222" y="2" relative="1" as="geometry">
            <mxPoint as="offset" />
          </mxGeometry>
        </mxCell>
        <mxCell id="-spEtkySA-hdAaVdw4VL-198" value="" style="endArrow=classic;startArrow=classic;html=1;rounded=0;" edge="1" parent="1">
          <mxGeometry width="50" height="50" relative="1" as="geometry">
            <mxPoint x="160" y="140" as="sourcePoint" />
            <mxPoint x="160" y="60" as="targetPoint" />
          </mxGeometry>
        </mxCell>
        <mxCell id="-spEtkySA-hdAaVdw4VL-199" value="A93" style="edgeLabel;html=1;align=center;verticalAlign=middle;resizable=0;points=[];" vertex="1" connectable="0" parent="-spEtkySA-hdAaVdw4VL-198">
          <mxGeometry x="-0.1457" y="-1" relative="1" as="geometry">
            <mxPoint as="offset" />
          </mxGeometry>
        </mxCell>
        <mxCell id="-spEtkySA-hdAaVdw4VL-200" value="" style="endArrow=classic;startArrow=none;html=1;curved=1;startFill=0;" edge="1" parent="1">
          <mxGeometry width="50" height="50" relative="1" as="geometry">
            <mxPoint x="350" y="10" as="sourcePoint" />
            <mxPoint x="360" y="170" as="targetPoint" />
            <Array as="points">
              <mxPoint x="310" y="140" />
            </Array>
          </mxGeometry>
        </mxCell>
        <mxCell id="-spEtkySA-hdAaVdw4VL-201" value="BL fournisseurs&lt;br&gt;FacturesDiverses" style="edgeLabel;html=1;align=center;verticalAlign=middle;resizable=0;points=[];" vertex="1" connectable="0" parent="-spEtkySA-hdAaVdw4VL-200">
          <mxGeometry x="0.589" y="15" relative="1" as="geometry">
            <mxPoint x="-14" y="3" as="offset" />
          </mxGeometry>
        </mxCell>
        <mxCell id="-spEtkySA-hdAaVdw4VL-202" value="" style="endArrow=classic;startArrow=classic;html=1;curved=1;" edge="1" parent="1">
          <mxGeometry width="50" height="50" relative="1" as="geometry">
            <mxPoint x="399" y="150" as="sourcePoint" />
            <mxPoint x="409" y="90" as="targetPoint" />
            <Array as="points">
              <mxPoint x="429" y="120" />
            </Array>
          </mxGeometry>
        </mxCell>
        <mxCell id="-spEtkySA-hdAaVdw4VL-203" value="" style="endArrow=classic;html=1;rounded=0;startArrow=classic;startFill=1;" edge="1" parent="1">
          <mxGeometry width="50" height="50" relative="1" as="geometry">
            <mxPoint x="180" y="210" as="sourcePoint" />
            <mxPoint x="350" y="180" as="targetPoint" />
          </mxGeometry>
        </mxCell>
        <mxCell id="-spEtkySA-hdAaVdw4VL-204" value="Annexes" style="edgeLabel;html=1;align=center;verticalAlign=middle;resizable=0;points=[];" vertex="1" connectable="0" parent="-spEtkySA-hdAaVdw4VL-203">
          <mxGeometry x="-0.194" y="3" relative="1" as="geometry">
            <mxPoint as="offset" />
          </mxGeometry>
        </mxCell>
        <mxCell id="-spEtkySA-hdAaVdw4VL-205" value="Passer Commande" style="text;html=1;strokeColor=none;fillColor=none;align=center;verticalAlign=middle;whiteSpace=wrap;rounded=0;" vertex="1" parent="1">
          <mxGeometry x="-30" y="490" width="60" height="30" as="geometry" />
        </mxCell>
        <mxCell id="-spEtkySA-hdAaVdw4VL-206" value="Livrer" style="text;html=1;strokeColor=none;fillColor=none;align=center;verticalAlign=middle;whiteSpace=wrap;rounded=0;" vertex="1" parent="1">
          <mxGeometry x="-30" y="850" width="60" height="30" as="geometry" />
        </mxCell>
        <mxCell id="-spEtkySA-hdAaVdw4VL-207" value="Facturer" style="text;html=1;strokeColor=none;fillColor=none;align=center;verticalAlign=middle;whiteSpace=wrap;rounded=0;" vertex="1" parent="1">
          <mxGeometry x="-30" y="1240" width="60" height="30" as="geometry" />
        </mxCell>
        <mxCell id="-spEtkySA-hdAaVdw4VL-208" value="1" style="ellipse;whiteSpace=wrap;html=1;aspect=fixed;" vertex="1" parent="1">
          <mxGeometry x="100" y="390" width="20" height="20" as="geometry" />
        </mxCell>
        <mxCell id="-spEtkySA-hdAaVdw4VL-209" value="2" style="ellipse;whiteSpace=wrap;html=1;aspect=fixed;" vertex="1" parent="1">
          <mxGeometry x="230" y="400" width="20" height="20" as="geometry" />
        </mxCell>
        <mxCell id="-spEtkySA-hdAaVdw4VL-211" value="3" style="ellipse;whiteSpace=wrap;html=1;aspect=fixed;" vertex="1" parent="1">
          <mxGeometry x="434" y="410" width="20" height="20" as="geometry" />
        </mxCell>
        <mxCell id="-spEtkySA-hdAaVdw4VL-212" value="" style="endArrow=classic;html=1;rounded=0;" edge="1" parent="1">
          <mxGeometry width="50" height="50" relative="1" as="geometry">
            <mxPoint x="350" y="750" as="sourcePoint" />
            <mxPoint x="190" y="960" as="targetPoint" />
          </mxGeometry>
        </mxCell>
        <mxCell id="-spEtkySA-hdAaVdw4VL-213" value="CMD + Docs" style="edgeLabel;html=1;align=center;verticalAlign=middle;resizable=0;points=[];" vertex="1" connectable="0" parent="-spEtkySA-hdAaVdw4VL-212">
          <mxGeometry x="-0.1524" relative="1" as="geometry">
            <mxPoint x="42" y="-59" as="offset" />
          </mxGeometry>
        </mxCell>
      </root>
    </mxGraphModel>
  </diagram>
</mxfile>
